<?xml version="1.0" encoding="utf-8"?>
<!-- Generator: Adobe Illustrator 22.0.0, SVG Export Plug-In . SVG Version: 6.00 Build 0)  -->
<svg xmlns="http://www.w3.org/2000/svg" xmlns:xlink="http://www.w3.org/1999/xlink" version="1.1" id="Layer_1" x="0px" y="0px" viewBox="0 0 64 64" style="enable-background:new 0 0 64 64;" xml:space="preserve" width="512" height="512">
<style type="text/css">
	.st0{fill:#263238;}
	.st1{fill:#4DB6AC;}
	.st2{fill:#FFD740;}
	.st3{fill:#4FC3F7;}
	.st4{fill:#FF5252;}
	.st5{fill:#FFFFFF;}
</style>
<g>
	<g>
		<path class="st1" d="M16.342,34.644l-1.2-4C15.046,30.323,15.286,30,15.621,30h1.278c1.192,0,2.218-0.841,2.451-2.01l0.55-2.75    c0.03-0.151,0.129-0.28,0.267-0.349l3.411-1.705c0.237-0.119,0.418-0.327,0.501-0.578l0.65-1.949    C24.838,20.334,24.597,20,24.255,20H12.327c-1.332,0-2.43,1.045-2.497,2.375L9.501,28.95C9.473,29.521,9.928,30,10.5,30h1.077    c0.221,0,0.415,0.145,0.479,0.356l1.2,4C13.352,34.677,13.112,35,12.777,35h-0.688c-0.325,0-0.564,0.306-0.485,0.621l1.871,7.485    C13.754,44.219,14.754,45,15.901,45h3.596c1.147,0,2.147-0.781,2.425-1.894l1.25-5C23.567,36.528,22.373,35,20.747,35h-3.926    C16.6,35,16.406,34.855,16.342,34.644z"/>
		<path class="st0" d="M19.497,45.5h-3.596c-1.379,0-2.576-0.935-2.91-2.272l-1.871-7.485c-0.076-0.3-0.009-0.613,0.181-0.857    c0.191-0.245,0.479-0.385,0.789-0.385h0.688l-1.2-4H10.5c-0.415,0-0.801-0.166-1.087-0.466c-0.282-0.296-0.432-0.7-0.412-1.109    l0.329-6.575c0.081-1.598,1.396-2.85,2.997-2.85h11.928c0.32,0,0.624,0.155,0.811,0.415c0.188,0.26,0.239,0.597,0.137,0.901    l-0.649,1.949c-0.127,0.38-0.394,0.688-0.752,0.867l-3.411,1.706l-0.55,2.75c-0.28,1.397-1.517,2.412-2.942,2.412h-1.278l1.2,4    l-0.479,0.144l0.479-0.144h3.926c0.93,0,1.792,0.42,2.365,1.154c0.572,0.733,0.771,1.671,0.545,2.574l-1.25,5    C22.073,44.565,20.876,45.5,19.497,45.5z M12.089,35.5l1.871,7.485c0.223,0.892,1.021,1.515,1.94,1.515h3.596    c0.919,0,1.717-0.623,1.94-1.515l1.25-5c0.15-0.602,0.018-1.228-0.364-1.716c-0.381-0.489-0.956-0.769-1.576-0.769h-3.926    c-0.445,0-0.83-0.287-0.958-0.713l0,0l-1.2-4c-0.092-0.306-0.035-0.628,0.156-0.884c0.19-0.256,0.483-0.403,0.802-0.403h1.278    c0.95,0,1.775-0.676,1.961-1.608l0.55-2.75c0.06-0.3,0.259-0.561,0.533-0.698l3.411-1.706c0.12-0.06,0.208-0.163,0.251-0.289    l0.649-1.949H12.327c-1.066,0-1.944,0.834-1.998,1.9l-0.329,6.575c-0.007,0.138,0.042,0.27,0.137,0.37S10.362,29.5,10.5,29.5    h1.077c0.439,0,0.833,0.293,0.958,0.714l1.2,3.999c0.092,0.306,0.035,0.628-0.156,0.884c-0.19,0.256-0.483,0.403-0.802,0.403    H12.089z"/>
	</g>
	<g>
		<path class="st1" d="M34.921,22.5v0.817c0,0.118-0.042,0.233-0.118,0.323l-3.989,4.714C30.264,29.004,30.726,30,31.578,30h4.41    c0.399,0,0.638,0.445,0.416,0.777l-1.333,2C34.977,32.916,34.821,33,34.654,33h-2.732c-0.276,0-0.5,0.224-0.5,0.5v3.825    c0,0.114,0.039,0.224,0.11,0.312l5.74,7.175C37.366,44.931,37.51,45,37.662,45h0.26c1.381,0,2.5-1.119,2.5-2.5v-12    c0-0.276,0.224-0.5,0.5-0.5h6.955c0.947,0,1.813-0.535,2.236-1.382l2.5-5C53.444,21.956,52.235,20,50.376,20H37.421    C36.041,20,34.921,21.119,34.921,22.5z"/>
	</g>
	<g>
		<path class="st1" d="M53.283,43.257l-3.053-0.678l-3.089,0.686c-0.682,0.152-1.306-0.426-1.207-1.118l0.199-1.393    c0.063-0.442,0.244-0.859,0.523-1.208l0.823-1.029c0.474-0.593,1.193-0.938,1.952-0.938h3.451c0.489,0,0.906,0.353,0.986,0.836    l0.617,3.702C54.603,42.815,53.975,43.41,53.283,43.257z"/>
		<path class="st0" d="M46.925,43.789c-0.375,0-0.74-0.14-1.02-0.4c-0.361-0.334-0.535-0.825-0.466-1.312l0.199-1.394    c0.076-0.53,0.293-1.032,0.628-1.45l0.822-1.029c0.573-0.716,1.427-1.126,2.343-1.126h3.452c0.736,0,1.358,0.527,1.479,1.253    l0.617,3.703c0.082,0.493-0.085,0.992-0.448,1.335c-0.363,0.343-0.869,0.482-1.357,0.375L50.23,43.09l-2.98,0.663    C47.142,43.777,47.033,43.789,46.925,43.789z M49.432,38.078c-0.611,0-1.18,0.273-1.562,0.75l-0.822,1.029    c-0.224,0.279-0.368,0.613-0.418,0.967l-0.199,1.394c-0.023,0.165,0.033,0.324,0.155,0.438c0.122,0.113,0.283,0.157,0.448,0.121    l3.089-0.687c0.07-0.016,0.145-0.017,0.217,0l3.053,0.678l0,0c0.166,0.037,0.33-0.009,0.453-0.125    c0.123-0.116,0.177-0.279,0.149-0.445l-0.617-3.702c-0.041-0.242-0.248-0.417-0.493-0.417H49.432z"/>
	</g>
	<g>
		<path class="st1" d="M31.756,23h-2c-0.552,0-1-0.448-1-1v-1c0-0.552,0.448-1,1-1h2c0.552,0,1,0.448,1,1v1    C32.756,22.552,32.308,23,31.756,23z"/>
		<path class="st0" d="M31.756,23.5h-2c-0.827,0-1.5-0.673-1.5-1.5v-1c0-0.827,0.673-1.5,1.5-1.5h2c0.827,0,1.5,0.673,1.5,1.5v1    C33.256,22.827,32.583,23.5,31.756,23.5z M29.756,20.5c-0.276,0-0.5,0.224-0.5,0.5v1c0,0.276,0.224,0.5,0.5,0.5h2    c0.276,0,0.5-0.224,0.5-0.5v-1c0-0.276-0.224-0.5-0.5-0.5H29.756z"/>
	</g>
	<g>
		<path class="st1" d="M48.256,35.5h-3c-0.552,0-1-0.448-1-1v-1c0-0.552,0.448-1,1-1h3c0.552,0,1,0.448,1,1v1    C49.256,35.052,48.808,35.5,48.256,35.5z"/>
		<path class="st0" d="M48.256,36h-3c-0.827,0-1.5-0.673-1.5-1.5v-1c0-0.827,0.673-1.5,1.5-1.5h3c0.827,0,1.5,0.673,1.5,1.5v1    C49.756,35.327,49.083,36,48.256,36z M45.256,33c-0.276,0-0.5,0.224-0.5,0.5v1c0,0.276,0.224,0.5,0.5,0.5h3    c0.276,0,0.5-0.224,0.5-0.5v-1c0-0.276-0.224-0.5-0.5-0.5H45.256z"/>
	</g>
	<g>
		<path class="st4" d="M51.873,4.975L51.873,4.975c-2.715-2.633-7.031-2.633-9.746,0v0c-2.32,2.25-2.798,5.795-1.158,8.579    L47,23.788l6.031-10.234C54.672,10.77,54.193,7.225,51.873,4.975z M47,13.5c-1.933,0-3.5-1.567-3.5-3.5s1.567-3.5,3.5-3.5    c1.933,0,3.5,1.567,3.5,3.5S48.933,13.5,47,13.5z"/>
		<path class="st0" d="M47,24.288c-0.177,0-0.341-0.094-0.431-0.246l-6.031-10.234c-1.764-2.993-1.254-6.773,1.24-9.191    c2.928-2.839,7.515-2.839,10.442,0l0,0c2.494,2.418,3.004,6.198,1.24,9.191l-6.031,10.234C47.341,24.194,47.178,24.288,47,24.288z     M47,3.489c-1.628,0-3.256,0.615-4.525,1.845C40.314,7.43,39.872,10.706,41.4,13.3l5.6,9.503l5.6-9.503    c1.529-2.594,1.086-5.87-1.075-7.966l0,0C50.257,4.104,48.628,3.489,47,3.489z M47,14c-2.206,0-4-1.794-4-4s1.794-4,4-4    s4,1.794,4,4S49.206,14,47,14z M47,7c-1.654,0-3,1.346-3,3s1.346,3,3,3s3-1.346,3-3S48.655,7,47,7z"/>
	</g>
	<g>
		<path class="st0" d="M37.921,45.5h-0.26c-0.306,0-0.59-0.137-0.781-0.376l-5.74-7.175c-0.141-0.175-0.219-0.397-0.219-0.625V33.5    c0-0.551,0.449-1,1-1h2.732l1.333-2h-4.41c-0.591,0-1.112-0.333-1.361-0.869c-0.249-0.536-0.166-1.149,0.215-1.6l3.989-4.714V22.5    c0-1.654,1.346-3,3-3h5.025c0.276,0,0.5,0.224,0.5,0.5s-0.224,0.5-0.5,0.5h-5.025c-1.103,0-2,0.897-2,2v0.817    c0,0.235-0.084,0.465-0.236,0.645l-3.99,4.715c-0.191,0.227-0.104,0.466-0.072,0.534c0.031,0.068,0.157,0.29,0.454,0.29h4.41    c0.369,0,0.707,0.202,0.881,0.527c0.174,0.326,0.156,0.719-0.049,1.027l-1.334,2C35.3,33.333,34.989,33.5,34.654,33.5h-2.732    v3.825l5.741,7.175l0.259,0c1.103,0,2-0.897,2-2v-12c0-0.551,0.449-1,1-1h6.955c0.762,0,1.448-0.424,1.789-1.106l2.5-5    c0.242-0.484,0.278-1.027,0.102-1.529c-0.182-0.516-0.569-0.941-1.063-1.168c-0.251-0.115-0.361-0.412-0.246-0.663    c0.116-0.251,0.412-0.36,0.663-0.246c0.74,0.34,1.319,0.976,1.59,1.746c0.267,0.76,0.214,1.58-0.15,2.309l-2.5,5    c-0.511,1.023-1.54,1.659-2.683,1.659h-6.955v12C40.921,44.154,39.576,45.5,37.921,45.5z"/>
	</g>
	<g>
		<path class="st0" d="M2,56.5c-0.11,0-0.219-0.037-0.308-0.106C1.571,56.299,1.5,56.154,1.5,56V14c0-0.229,0.156-0.429,0.379-0.485    l15.149-3.788c3.252-0.813,6.691-0.813,9.943,0l10.299,2.575c0.451,0.113,0.905,0.204,1.36,0.284    c0.272,0.048,0.454,0.307,0.406,0.579c-0.048,0.271-0.309,0.451-0.579,0.406c-0.479-0.084-0.957-0.181-1.43-0.299L26.73,10.697    c-3.094-0.772-6.365-0.772-9.459,0L2.5,14.391v40.969l14.528-3.632c3.252-0.813,6.691-0.813,9.943,0l10.299,2.575    c3.095,0.773,6.364,0.773,9.459,0L61.5,50.609V9.64l-5.394,1.348c-0.267,0.067-0.54-0.096-0.606-0.364    c-0.067-0.268,0.096-0.539,0.364-0.606l6.015-1.503c0.148-0.039,0.307-0.004,0.429,0.091C62.43,8.701,62.5,8.846,62.5,9v42    c0,0.229-0.156,0.429-0.379,0.485l-15.149,3.787c-3.252,0.814-6.69,0.813-9.943,0L26.73,52.697c-3.094-0.772-6.365-0.772-9.459,0    L2.122,56.485C2.082,56.495,2.041,56.5,2,56.5z"/>
	</g>
	<g>
		<path class="st0" d="M57,61.5h-2c-0.276,0-0.5-0.224-0.5-0.5s0.224-0.5,0.5-0.5h2c0.276,0,0.5,0.224,0.5,0.5S57.277,61.5,57,61.5z    "/>
	</g>
	<g>
		<path class="st0" d="M53,61.5H40.5c-0.276,0-0.5-0.224-0.5-0.5s0.224-0.5,0.5-0.5H53c0.276,0,0.5,0.224,0.5,0.5    S53.277,61.5,53,61.5z"/>
	</g>
	<g>
		<path class="st0" d="M9,4.5H7C6.724,4.5,6.5,4.276,6.5,4S6.724,3.5,7,3.5h2c0.276,0,0.5,0.224,0.5,0.5S9.277,4.5,9,4.5z"/>
	</g>
	<g>
		<path class="st0" d="M23.5,4.5H11c-0.276,0-0.5-0.224-0.5-0.5s0.224-0.5,0.5-0.5h12.5C23.777,3.5,24,3.724,24,4    S23.777,4.5,23.5,4.5z"/>
	</g>
</g>
</svg>
