<svg id="Layer_1" data-name="Layer 1" xmlns="http://www.w3.org/2000/svg" viewBox="0 0 852.41 564.82"><defs><style>.cls-1{fill:#fdfdfd;}.cls-2{fill:#e7e9f5;}.cls-3{fill:#7c4d96;}.cls-4{fill:#5a3a92;}.cls-5{fill:#5b3b92;}.cls-6{fill:#774a95;}.cls-7{fill:#7b4c95;}.cls-8{fill:#613e92;}.cls-9{fill:#7f4f96;}.cls-10{fill:#563891;}.cls-11{fill:#5d3c92;}.cls-12{fill:#855297;}.cls-13{fill:#845196;}.cls-14{fill:#fff;}.cls-15{fill:#694293;}.cls-16{fill:#734895;}.cls-17{fill:#724794;}.cls-18{fill:#6f4694;}.cls-19{fill:#875397;}.cls-20{fill:#825096;}.cls-21{fill:#583991;}.cls-22{fill:#754995;}.cls-23{fill:#794b95;}.cls-24{fill:#5f3d92;}.cls-25{fill:#6c4494;}.cls-26{fill:#6e4594;}</style></defs><title>Untitled-4</title><ellipse class="cls-1" cx="426.21" cy="282.41" rx="602.75" ry="399.39"/><path class="cls-2" d="M691.52,495.15a1.12,1.12,0,0,0-.5.86c-.42,4.09-.76,8.19-1.29,12.27-.46,3.53-1.08,7-1.71,10.55-1,5.81-2.46,11.54-3.94,17.26a185.65,185.65,0,0,1-8,23.85c-2.06,5-4.29,10-6.81,14.84A159.14,159.14,0,0,1,654.63,598c-2.3,3-4.79,5.85-7.27,8.71a131.28,131.28,0,0,1-9.68,9.91A136.78,136.78,0,0,1,626,626.12a122.32,122.32,0,0,1-21.92,12.79,120.48,120.48,0,0,1-26.28,8.39c-4.44.91-8.94,1.42-13.42,2a102.81,102.81,0,0,1-13.82.46h-4.77a117.34,117.34,0,0,1-15-1.17A119.8,119.8,0,0,1,506,642.73a118.52,118.52,0,0,1-24.16-11.6,150,150,0,0,1-14.81-10.81,123.88,123.88,0,0,1-13.65-13.26,141.58,141.58,0,0,1-18.92-26.45,195,195,0,0,1-12-25.42,197,197,0,0,1-8.33-28.06c-1.14-5.23-2.25-10.46-2.91-15.77.82-.09,1.25.53,1.69,1a17.49,17.49,0,0,0,13.26,5.77c11.77.21,23.55.11,35.32.07a2.52,2.52,0,0,0,.61-.11,19.42,19.42,0,0,0,11.72-4.61,11.32,11.32,0,0,0,1.86-1.93,3.19,3.19,0,0,1,.44-.46,1.52,1.52,0,0,1,.56-.3h.33a1.15,1.15,0,0,1,.47.43c1.3,4.58,2.18,9.26,3.51,13.84,3.82,13.17,9.15,25.63,17.57,36.56,7.12,9.25,15.64,16.94,26.43,21.75a62.08,62.08,0,0,0,20.82,5A63.86,63.86,0,0,0,575,583.75a58.94,58.94,0,0,0,18.06-11.9c14.4-13.41,22.4-30.4,27.46-49a161.2,161.2,0,0,0,5-27.66,8,8,0,0,0,.28-1.74,183.56,183.56,0,0,0,.38-28.62c-.18-3.71-.1-7.42-.51-11.12,0-1.33-.8-1.8-2-1.81h-1q-61.14,0-122.3,0a3.57,3.57,0,0,1-2.37-.49c-.35-.85.36-.88.83-1a12.68,12.68,0,0,1,2.89-.13H623.3c2.07,0,2.26-.19,2-2.31-.35-2.87-.69-5.75-1.17-8.61-2.36-13.89-6.15-27.34-12.56-39.95-4.43-8.72-9.76-16.87-16.76-23.76a59.53,59.53,0,0,0-36.64-17.5c-12-1.21-23.71.08-34.75,5.33a60.21,60.21,0,0,0-18.93,14.17c-13.95,15.39-21.56,33.83-26,53.81a25,25,0,0,1-.85,3.62,1.43,1.43,0,0,1-.41.53.69.69,0,0,1-.62-.07,19.51,19.51,0,0,0-13.18-7.17,12.08,12.08,0,0,0-2.88-.13c-11.3,0-22.6,0-33.89,0-5.05,0-9.49,1.49-13.05,5.2a3.14,3.14,0,0,1-2.22,1.36c.42-3.68,1.07-7.31,1.8-10.94a208.11,208.11,0,0,1,6.48-24.7c1.59-4.76,3.3-9.49,5.28-14.12s4.14-9.32,6.5-13.84a157.23,157.23,0,0,1,12-19.52c2.25-3.13,4.65-6.13,7.1-9.09a125.18,125.18,0,0,1,9.23-10,141.88,141.88,0,0,1,21.11-16.81,121.1,121.1,0,0,1,22.08-11.18,118.67,118.67,0,0,1,19.79-5.7c4.29-.87,8.65-1.39,13-1.84a132,132,0,0,1,19.37-.71c3.07.13,6.16.29,9.24.65,3.33.39,6.66.79,10,1.33a123.6,123.6,0,0,1,14.84,3.41A127.69,127.69,0,0,1,608,309.11c3,1.45,6,3.16,8.87,4.88a145.12,145.12,0,0,1,15.78,11.23,54.57,54.57,0,0,1,4.6,4.14c1.52,1.5,3.33,2.67,4.74,4.3,3,3.48,6.26,6.75,9.19,10.32a163.82,163.82,0,0,1,11.12,15.36c2,3.07,3.82,6.22,5.51,9.45a198.19,198.19,0,0,1,10.51,23.14q3,8,5.27,16.29,2.59,9.22,4.32,18.65c.75,4,1.42,8.09,1.92,12.18.44,3.6.85,7.21,1.2,10.83a.93.93,0,0,0,1.06,1H818.22a3.78,3.78,0,0,1,2.74-.67q19,0,38,0c1,0,2.27-.31,2.81,1.07-1.07.93-2.37.57-3.57.57q-66.37,0-132.74,0-15.12,0-30.23.07c-3,0-3,0-2.79,3,.84,11.52.19,23-.33,34.52C692,491.36,692.59,493.35,691.52,495.15Z" transform="translate(-74.38 -217.97)"/><path class="cls-2" d="M217.32,579.75H100.69c-3.48,0-3.1.38-3.1-3.09,0-15.88,0-31.76,0-47.64a5.87,5.87,0,0,1,1-3.47q10.47-15.48,20.88-31l16-23.81q7.66-11.4,15.33-22.79c5.3-7.89,10.5-15.83,15.89-23.65,5.2-7.54,10.13-15.26,15.33-22.79,5.48-7.93,10.65-16.07,16.13-24,5.33-7.7,10.42-15.56,15.68-23.3q8.11-12,16.14-24l14.94-22.3c2.52-3.75,2.52-3.75,7.11-3.75h63c2.74,0,2.63-.21,2.63,2.54q0,28,0,55.93a4.72,4.72,0,0,0,.41,2.82,12.66,12.66,0,0,1,.26,3.07q0,13.92,0,27.84c0,2.26.05,4.53.14,6.79a9.65,9.65,0,0,0-.12,2.68q0,54.65,0,109.3c0,3.84,0,3.83,3.91,3.84,2.41,0,4.83,0,7.24,0,1.4.36.85,1.36.58,2.11-.6,1.74-1.29,3.44-2,5.13a116.14,116.14,0,0,1-9.9,18.08c-6.88,10.19-15.36,18.69-26.24,24.62-1.94,1.06-4,1.83-6,2.73a45.78,45.78,0,0,1-23.78,2.76A55.63,55.63,0,0,1,242.49,567a96.07,96.07,0,0,1-8.66-6.34A95.91,95.91,0,0,1,213,533.12c-.11-.23-.21-.47-.32-.7s-.13-.29-.19-.44-.18-.41-.28-.61A3.54,3.54,0,0,1,212,531l-.28-.57a3.24,3.24,0,0,1-.13-.41c-.07-.21-.14-.41-.23-.62l-.21-.41-.38-.65c-.1-.16-.19-.33-.28-.49a57,57,0,0,1-2.64-6.3c-.28-.73-.73-1.58.25-2.21a8.45,8.45,0,0,1,3.08-.27h37.7c3.48,0,3.48,0,3.48-3.58V405.06a9,9,0,0,0,0-1c-.12-1,.37-2.23-1.07-2.58a2.73,2.73,0,0,0-3,1.28c-2.08,3-4.08,6.08-6.11,9.12-13,19.53-26.21,39-39.3,58.45a13.67,13.67,0,0,0-2.53,7.46c-.4.8-.81.65-1.1-.05a3.21,3.21,0,0,1,.08-2.38c-7.29,11.22-15,22.15-22.32,33.36-2,2.95-4,6-6,8.93-.78,1.14-.53,1.6.83,1.51,2.47-.16,5,.39,7.4-.42,1,.16,1,1,1.24,1.7a133.25,133.25,0,0,0,16,34.83,120,120,0,0,0,13.64,17.09c1.9,2.25,4.34,3.92,6.38,6C216.83,578.72,217.57,578.94,217.32,579.75Z" transform="translate(-74.38 -217.97)"/><path class="cls-2" d="M861.74,451.23c-.71-.64-1.58-.35-2.38-.35q-20.57,0-41.14,0V389.51c-.71-.39-1,0-1.27.26q-11,8-22,16c-6,4.37-11.95,8.81-17.94,13.19-2.77,2-5.6,4-8.37,6-.76.56-1.21.68-1.8-.25-2.09-3.32-4.26-6.6-6.41-9.88q-7.18-11-14.38-21.93c-3.39-5.18-6.75-10.38-10.13-15.58-.92-1.41-.88-1.6.51-2.6,9-6.44,18-12.83,27-19.34q14.91-10.87,29.93-21.6c8.39-6,16.73-12.06,25.09-18.1,4.68-3.39,9.36-6.76,14-10.2a6.55,6.55,0,0,1,4.19-1.34c14.64.05,29.28,0,43.92,0h1.66c.78,0,1.12.38,1.11,1.14s0,1.24,0,1.86V467.12c0,1.65,0,3.31,0,5-.85-.14-.78-.84-.87-1.43C881,461.53,875.5,456,867.07,453a30.74,30.74,0,0,0-4-.95A2.16,2.16,0,0,1,861.74,451.23Z" transform="translate(-74.38 -217.97)"/><path class="cls-2" d="M883.23,474.39c0,1.59,0,3.18,0,4.76V639.08c0,3,.28,2.82-2.76,2.82H821.07c-3,0-2.84.29-2.84-2.74V566.45c0-.49,0-1,0-1.45,0-1.8,0-1.81-1.88-1.83-1.31,0-2.63,0-3.94,0,.13-.93.91-1,1.55-1,5.35-.16,10.7-.08,16,.14a1.54,1.54,0,0,1,.57.22,3.18,3.18,0,0,1,.71,2.51c0,1.31,0,2.62,0,3.93,0,1.15.43,1.83,1.68,1.83,5.25,0,10.49.14,15.73-.06a4.29,4.29,0,0,0,4.41-4.35c.21-6.82.19-13.66,0-20.48-.08-2.84-1.82-4.33-4.71-4.44-2.41-.09-4.83,0-7.24,0-2.85,0-3.26-.43-3.29-3.23,0-4.14,0-8.28,0-12.42,0-3.31-.09-3.36-3.32-3.41-3.38-.06-6.76.2-10.13-.16-3-1-4.89-3-5.1-6.27s1.57-5.54,4.58-6.81c3-.91,6-.39,9.06-.46,5.33-.13,4.86.55,4.9-4.93,0-2.07,0-4.15,0-6.22.08-2.41.55-2.92,3-2.94,5.73,0,11.46.1,17.19.05a11.43,11.43,0,0,0,2.68-.14A24.18,24.18,0,0,0,875,489a20,20,0,0,0,7.34-12.78C882.44,475.55,882.21,474.66,883.23,474.39Z" transform="translate(-74.38 -217.97)"/><path class="cls-3" d="M327.54,526.18c.63-2.39,2-4.52,2.5-6.94-.39-1,.12-1.9.42-2.79A135.37,135.37,0,0,0,337,483.22a136.9,136.9,0,0,0-6.31-52.7,106.23,106.23,0,0,0-11.62-24.91,3.68,3.68,0,0,1-1-2.44,5.7,5.7,0,0,1-.42-2.42q0-16.77,0-33.54c0-.59-.23-1.26.34-1.75,16.08,12.89,27.2,29.38,35.05,48.24a8.48,8.48,0,0,1,.26,1,8.43,8.43,0,0,0-.24,2.87q0,54.38,0,108.73a11.69,11.69,0,0,0,.29,4.08c.85.86.46,1.79.09,2.69a130,130,0,0,1-21.26,35,13.67,13.67,0,0,1-2.72,2.54,3.87,3.87,0,0,1-.59.36l-.34.13a.75.75,0,0,1-.7-.16l-.23-.31a8.68,8.68,0,0,1-.34-3.47q0-17.62,0-35.27C327.35,530,326.8,528.06,327.54,526.18Z" transform="translate(-74.38 -217.97)"/><path class="cls-4" d="M823.6,509.7l-1,.7a6.08,6.08,0,0,0,.35,10.54l1.22.72a27.45,27.45,0,0,0-.31,4.53q0,16.23,0,32.46c0,2.93.08,3,3,3a12.06,12.06,0,0,1,2.48.11c.58.13,1.51,0,1.24,1.15-.61-.06-1.23-.17-1.84-.17-4.83,0-9.66,0-14.49,0-.62,0-1.39-.38-1.86.42,0,3.71-.07,7.43-.1,11.14,0,.48,0,1,0,1.44.06.88-.31,1.24-1.2,1.22-1.92,0-3.85,0-5.78,0-3,0-6-.06-9.07-.1-.92-1.13-.67-2.49-.67-3.78q0-30.74,0-61.47,0-28.14,0-56.29c0-1.22-.23-2.5.56-3.61.12-.06.24-.17.37-.17,8.9,0,17.81-.19,26.72.09a3.79,3.79,0,0,1,.63,2.75q0,26.64,0,53.3A5.18,5.18,0,0,1,823.6,509.7Z" transform="translate(-74.38 -217.97)"/><path class="cls-2" d="M317.63,581.39q0,29,0,58c0,2.75.11,2.53-2.63,2.53H255.58c-2.74,0-2.59.18-2.59-2.56V599.79a4.28,4.28,0,0,0-.42-2.61c.79-.72,1.68-.3,2.53-.18a41.05,41.05,0,0,0,6.26.79c8.64,1.08,17.13.13,25.55-1.78,10.35-2.49,19.59-7.31,28.2-13.47C315.86,582,316.51,581.15,317.63,581.39Z" transform="translate(-74.38 -217.97)"/><path class="cls-5" d="M796.27,451.7q0,62.58,0,125.15a105.21,105.21,0,0,1-12.43-.1c-.45-4-.1-8-.19-12,0-2.25,0-2.26-2.21-2.26-2.76,0-5.52-.06-8.27,0a1.66,1.66,0,0,1-2-1.79c0-.62-.05-1.24-.05-1.86q0-17,0-33.91a5.37,5.37,0,0,1,.63-3.4l1.06-.62c4.24-2.58,4.45-7.73.41-10.59-.33-.24-.67-.47-1-.7a3.77,3.77,0,0,1-.67-2.74q0-26.34,0-52.69a3.83,3.83,0,0,1,.56-2.57,6.26,6.26,0,0,1,2.65-.19q9.74,0,19.47,0A3.62,3.62,0,0,1,796.27,451.7Z" transform="translate(-74.38 -217.97)"/><path class="cls-6" d="M411.37,434.83c.9-.94,1.75-1.94,2.72-2.81a16.27,16.27,0,0,1,10.92-4.3c12.34-.1,24.68,0,37,0a3.34,3.34,0,0,1,2,.33c-.94,1-2.16.68-3.29.71-1.57,0-3.14.07-4.71,0-6.76.13-13.52,0-20.28.06-3,0-3.07.1-3.07,3q0,41.5,0,83c0,2.91.11,3,3,3,6.76,0,13.52-.07,20.28.06,2.26.16,4.63-.67,6.78.67a5.52,5.52,0,0,1-2.64.26c-10.95,0-21.89,0-32.84,0-6.54,0-12-2.11-16-7.39-.85-1.85-2.08-3.57-2.1-5.73a53,53,0,0,1-.13-8.45c0-1.66-.32-2.49-2.12-2.2a1.43,1.43,0,0,1-1.19-.23,4.45,4.45,0,0,1-.52-2.79q0-18.68,0-37.35a5.94,5.94,0,0,1,.35-2.64c.86-1.11,2.28.06,3.21-.77,0-1.92.11-3.84,0-5.76A18.28,18.28,0,0,1,411.37,434.83Z" transform="translate(-74.38 -217.97)"/><path class="cls-7" d="M405.91,494.76c3.69.15,3.29-.62,3.3,3.48,0,2.46,0,4.93,0,7.39a6,6,0,0,1-.38-3q0-3.1,0-6.21c0-.85-.24-1.32-1.17-1.24-.48,0-1,0-1.45,0H365.38c-.41,0-.83,0-1.24,0-.86-.07-1.21.32-1.31,1.18a128.46,128.46,0,0,1-2.52,13.62c-.66,2.81-1.39,5.61-2.09,8.42-.44.62.1,1.42-.36,2a5.11,5.11,0,0,0-.43.88c-.05.15-.11.3-.17.44a8.75,8.75,0,0,0-.3.86,2.16,2.16,0,0,1-.14.43,6.23,6.23,0,0,0-.28.83,4.13,4.13,0,0,1-.14.42,6.5,6.5,0,0,0-.28.85,2.16,2.16,0,0,1-.14.43c-.09.22-.19.42-.29.63s-.13.28-.2.42-.15.45-.22.67a3.29,3.29,0,0,1-.16.44c-.08.23-.15.45-.22.67a2.59,2.59,0,0,1-.14.45,5.22,5.22,0,0,0-.29.87,3,3,0,0,1-.15.45,2.45,2.45,0,0,1-.41.6l-.21.11c-.49.23-1,.31-1.15-.35a7.46,7.46,0,0,1-.09-1.64q0-55.82,0-111.61c0-1-.18-2,.91-2.55l0,.05c.13.29.08.67.39.89l0,0c.2.26.13.62.36.86a.2.2,0,0,1,.08.27c.14.32.09.72.38,1v0c.21.24.15.59.34.84a.31.31,0,0,1,.09.34c.19.28.12.65.35.91a.24.24,0,0,1,.08.29c.16.31.1.69.35.95a.18.18,0,0,1,.07.26c.13.32.09.71.36,1a.18.18,0,0,1,.06.25c.13.32.09.71.35,1a.17.17,0,0,1,.06.25c.13.33.1.71.35,1a.22.22,0,0,1,.06.28c.14.31.1.68.33,1a.27.27,0,0,1,.08.31c.15.29.11.65.32.93a94.19,94.19,0,0,1,3.29,12.58c.68,3.17,1.17,6.37,1.7,9.57.31,1.87.27,1.9,2.13,1.9q13.25,0,26.5,0c5.79,0,11.59,0,17.39-.07-.84.92-1.93.31-2.89.5-.93.8-2.07.65-3.16.66-6.75,0-13.51,0-20.26,0-2.7,0-2.83.14-2.84,2.77q0,18.11,0,36.19c0,2.65.14,2.78,2.83,2.78,6.76,0,13.51,0,20.27,0C403.83,494.13,405,494,405.91,494.76Z" transform="translate(-74.38 -217.97)"/><path class="cls-8" d="M796.27,451.7h-24a3.26,3.26,0,0,1-2.33.65c-7.49,0-15,.09-22.48,0-7.11.12-14.22,0-21.33.05-2.82,0-2.91.1-2.92,2.91q0,18,0,36c0,2.68.13,2.8,2.8,2.82,7.11,0,14.22-.08,21.33.05,2.69-.1,5.37-.07,8.06,0,2.41,0,2.92.55,3,2.92.08,2.76,0,5.51,0,8.27s.14,2.85,3,2.87c2.48,0,5,0,7.44,0,.82,0,1.87-.2,2.19,1l-11.59,0c-2.25,0-2.08.13-2.08-2.17,0-3.38,0-6.76,0-10.14,0-1.76,0-1.78-1.84-1.78h-64a32.93,32.93,0,0,1,0-5.79c.42-7.31.4-14.63.57-21.94a104.18,104.18,0,0,0-.62-14.67c-.16-1.37-.13-1.39,1.24-1.44h123q23,0,46-.07c.43.18,1,.08,1.33.42a2.76,2.76,0,0,1-2.28.7c-4.65,0-9.3.09-13.95,0-7.1.13-14.21,0-21.31,0a3.21,3.21,0,0,1-2.33-.65Z" transform="translate(-74.38 -217.97)"/><path class="cls-9" d="M317.63,581.39a127.57,127.57,0,0,1-11.36,7.45,80,80,0,0,1-17.65,7.29,12.21,12.21,0,0,1-1.21.2c-1.06.48-1.56,0-1.79-1a9.57,9.57,0,0,1-.15-2.27q0-9.4,0-18.83c0-1.09-.15-2.23.67-3.16,2-1,4-1.85,5.93-2.89,10.2-5.55,18.15-13.55,24.77-23A103.3,103.3,0,0,0,326.59,528a5.71,5.71,0,0,1,1-1.81c1,14.14.19,28.3.47,42.45,0,.86-.32,1.81.49,2.52a.94.94,0,0,1-.17,1.15c-2.69,2.69-5.24,5.55-8.63,7.44A7.05,7.05,0,0,0,317.63,581.39Z" transform="translate(-74.38 -217.97)"/><path class="cls-10" d="M846.82,451.7l16.25-.05c8.89.73,18.65,8.24,19.85,18.83a3.67,3.67,0,0,0,.32,1.6c0,.77,0,1.54,0,2.31-.5,1.09-.3,2.3-.61,3.44-2.4,8.92-8.4,14.1-17.06,16.51a10.42,10.42,0,0,1-4.08.49c-4.61.35-9.22.07-13.84.16-.88,0-1.21-.49-1.36-1.24a9.48,9.48,0,0,1-.14-2.06q0-18.42,0-36.83C846.15,453.77,846,452.63,846.82,451.7Z" transform="translate(-74.38 -217.97)"/><path class="cls-11" d="M747.37,451.7h24.86v58a2.1,2.1,0,0,1-1.25-.43c-.56-.59-1.29-.37-2-.37-3,0-6.07,0-9.1,0-2.19,0-2.2,0-2.2-2.12,0-3.38,0-6.75,0-10.13,0-1.8,0-1.81-1.87-1.83l-8.48,0a3.67,3.67,0,0,1-.68-2.73q0-18.79,0-37.59A3.73,3.73,0,0,1,747.37,451.7Z" transform="translate(-74.38 -217.97)"/><path class="cls-11" d="M771.77,521.6q0,18.82.05,37.63c0,3.48-.37,3.08,3.08,3.1,2.07,0,4.14,0,6.2,0,2.92,0,2.73-.22,2.73,2.63v11.78c-.57-.58-.28-1.3-.28-2,0-3.52,0-7,0-10.56,0-1.44,0-1.48-1.52-1.48q-7.56,0-15.11,0c-1.6,0-1.62,0-1.64,1.57,0,1.93,0,3.87,0,5.8,0,1-.24,1.35-1.28,1.34-5.66-.05-11.32,0-17-.06a4.72,4.72,0,0,1-4.94-5q-.09-10.35,0-20.71a4.73,4.73,0,0,1,5-4.93c2.69,0,5.38,0,8.07,0,2.25,0,2.18.2,2.17-2.09V524.39c0-.49,0-1,0-1.45,0-.71.35-1,1-1,.89,0,1.79,0,2.69,0C764.61,521.87,768.21,522.23,771.77,521.6Z" transform="translate(-74.38 -217.97)"/><path class="cls-2" d="M319.7,579.74c2.5-2.34,5-4.67,7.5-7a4.13,4.13,0,0,0,1.3-1.57l0,0a.7.7,0,0,1,.45-.45l-.05,0a.74.74,0,0,1,.51-.45,72,72,0,0,0,8.34-9.94,128.37,128.37,0,0,0,15.57-28.1,12.07,12.07,0,0,0,.41-1.37h0c.25-.22.17-.58.35-.82a.38.38,0,0,0,.09-.35c.19-.27.14-.64.37-.9a.25.25,0,0,0,.07-.28c.14-.32.12-.7.38-1h0c.38-.33,0-.93.44-1.25v0c.2-.25.15-.6.34-.85a.32.32,0,0,0,.08-.33c.18-.28.14-.64.34-.92a.33.33,0,0,0,.08-.33c.17-.28.14-.64.34-.91a.33.33,0,0,0,.07-.33c.18-.28.14-.64.34-.91a.34.34,0,0,0,.07-.35c.19-.27.15-.62.33-.89.52-.62.29-1.54.86-2.14.07.33,0,.89.22,1,1.29.54,1.05,1.62,1.05,2.62v55.43c0,.34,0,.69,0,1,.07,1-.36,1.41-1.33,1.34-.34,0-.69,0-1,0Z" transform="translate(-74.38 -217.97)"/><path class="cls-12" d="M211.92,530a.24.24,0,0,1,.09.27,1.09,1.09,0,0,0,.32.56.26.26,0,0,1,.09.28,1.31,1.31,0,0,0,.31.55.3.3,0,0,1,.1.29,1.41,1.41,0,0,0,.32.54c1.69,2.91,3.3,5.88,5.08,8.74a85.42,85.42,0,0,0,14.83,17.94c.36.33.66.7,1,1.05a29.91,29.91,0,0,0-.29,6c0,7.37,0,14.75,0,22.12a3.26,3.26,0,0,1-.27,1.82,66.94,66.94,0,0,1-11.92-7.21c-1.44-1-2.85-2.12-4.27-3.18-2-1.8-4-3.59-5.91-5.41a6.18,6.18,0,0,1-1.51-1.67,4.91,4.91,0,0,1-.69-3q0-19.44,0-38.87a5.71,5.71,0,0,1,.26-2.25c.41-1,1-1.13,1.66-.22h0c.23.22.16.6.39.83v0C211.8,529.41,211.7,529.78,211.92,530Z" transform="translate(-74.38 -217.97)"/><path class="cls-13" d="M233.51,590.14a4.66,4.66,0,0,1-.42-2.41c0-8.46,0-16.91,0-25.37,0-.8-.44-1.9.94-2.14,1.53,1.16,3,2.35,4.59,3.49a52.53,52.53,0,0,0,22.62,9.92,2.12,2.12,0,0,1,.55.26,4.54,4.54,0,0,0-1.15,3.38c0,5.82,0,11.65,0,17.47a22.69,22.69,0,0,0,.62,3.61,41.9,41.9,0,0,1-7.49-1c-.4-.07-.81-.11-1.21-.16a90.06,90.06,0,0,1-16-5.42A14.84,14.84,0,0,1,233.51,590.14Z" transform="translate(-74.38 -217.97)"/><path class="cls-3" d="M355.74,421a.87.87,0,0,1-.35-.95A1,1,0,0,1,355.74,421Z" transform="translate(-74.38 -217.97)"/><path class="cls-3" d="M356.17,422.27a.9.9,0,0,1-.36-1A1.09,1.09,0,0,1,356.17,422.27Z" transform="translate(-74.38 -217.97)"/><path class="cls-3" d="M356.58,423.51a.9.9,0,0,1-.35-1A1.09,1.09,0,0,1,356.58,423.51Z" transform="translate(-74.38 -217.97)"/><path class="cls-3" d="M357,424.75a.91.91,0,0,1-.35-1A1.06,1.06,0,0,1,357,424.75Z" transform="translate(-74.38 -217.97)"/><path class="cls-3" d="M357.38,426a.89.89,0,0,1-.33-1A1,1,0,0,1,357.38,426Z" transform="translate(-74.38 -217.97)"/><path class="cls-3" d="M357.78,427.23a.88.88,0,0,1-.32-.93A1,1,0,0,1,357.78,427.23Z" transform="translate(-74.38 -217.97)"/><path class="cls-3" d="M355.31,419.78a.91.91,0,0,1-.35-.91A1,1,0,0,1,355.31,419.78Z" transform="translate(-74.38 -217.97)"/><path class="cls-3" d="M354.87,418.53a.88.88,0,0,1-.34-.84A.88.88,0,0,1,354.87,418.53Z" transform="translate(-74.38 -217.97)"/><path class="cls-3" d="M353.73,415.63a.72.72,0,0,1-.39-.89A.94.94,0,0,1,353.73,415.63Z" transform="translate(-74.38 -217.97)"/><path class="cls-3" d="M354.53,417.71a.87.87,0,0,1-.38-1A1.11,1.11,0,0,1,354.53,417.71Z" transform="translate(-74.38 -217.97)"/><path class="cls-3" d="M354.07,416.46a.85.85,0,0,1-.36-.86A.86.86,0,0,1,354.07,416.46Z" transform="translate(-74.38 -217.97)"/><path class="cls-14" d="M477.2,435.46a62.33,62.33,0,0,1,1.85-9.07,126.73,126.73,0,0,1,12-30.93,97.29,97.29,0,0,1,9.64-14.38c1.52-1.88,3.13-3.69,4.79-5.4a60.65,60.65,0,0,1,11.32-9.24,58,58,0,0,1,18.4-7.64A55.6,55.6,0,0,1,548,357.2c1.94,0,3.87-.05,5.8,0a60.85,60.85,0,0,1,20.1,4.06,53.89,53.89,0,0,1,14.22,7.91,78.53,78.53,0,0,1,10.14,9.34,100.15,100.15,0,0,1,15.13,23.31,125.9,125.9,0,0,1,8.81,25.29c1.34,5.61,2.43,11.27,3.23,17a24.93,24.93,0,0,1,.5,6.59,3.73,3.73,0,0,1-2,.17H499.47c-.55,0-1.1,0-1.66.06-.74.64-1.56.36-2.35.17a21.51,21.51,0,0,1-11.43-7c-1.7-2-3.59-3.81-5.14-5.91a4.59,4.59,0,0,1-.36-.41l-.18-.2-.33-.38-.17-.18-.33-.36-.16-.18a2.82,2.82,0,0,1-.29-.39c0-.08-.05-.16-.08-.23A.42.42,0,0,1,477.2,435.46Z" transform="translate(-74.38 -217.97)"/><path class="cls-14" d="M626,495.21a85.92,85.92,0,0,1-1.86,14.46,153,153,0,0,1-4,16.61,132.34,132.34,0,0,1-5.2,14.58A105.83,105.83,0,0,1,608.82,553a94.32,94.32,0,0,1-8.16,11.64,87.31,87.31,0,0,1-6.7,7,59,59,0,0,1-27.56,15.47A65.76,65.76,0,0,1,555,588.93a39.62,39.62,0,0,1-5.95.31c-5.6-.45-11.19-.94-16.64-2.55A61.59,61.59,0,0,1,512,576.13a85.86,85.86,0,0,1-11.62-11.42c-5.89-6.71-10.09-14.45-13.74-22.48A129.68,129.68,0,0,1,477.58,513a7,7,0,0,1-.41-2l-.17-.17c0-.08,0-.16,0-.24a1.52,1.52,0,0,1,.24-.41l.16-.18a3.68,3.68,0,0,1,.33-.35l.17-.17.33-.37.17-.2c.34-.42.56-.92.91-1.34a80.55,80.55,0,0,1,7.52-7.93,21.59,21.59,0,0,1,14.31-5c9.81-.06,19.61,0,29.42,0,30.67.06,61.33,0,92,0C623.71,494.63,625,494.3,626,495.21Z" transform="translate(-74.38 -217.97)"/><path class="cls-15" d="M626.33,453.76a300.89,300.89,0,0,1,.74,33.44,26.53,26.53,0,0,1-.72,6.76,1.35,1.35,0,0,1-1.5,1.05c-14.17,0-28.34,0-42.5,0a1.49,1.49,0,0,1-.39-.13,3.87,3.87,0,0,1-.61-2.76q0-18.79,0-37.61a4.15,4.15,0,0,1,.56-2.77,4.45,4.45,0,0,1,2.23-.2c13.14,0,26.29,0,39.44-.06C625.43,451.43,626.43,451.76,626.33,453.76Z" transform="translate(-74.38 -217.97)"/><path class="cls-16" d="M456,428.08l8-.06a17.49,17.49,0,0,1,12.8,7.38,19.11,19.11,0,0,0-.22,4.53q0,33.29,0,66.58a35.44,35.44,0,0,1-.21,4.94,17.37,17.37,0,0,1-13.62,7l-6.73-.09a3.58,3.58,0,0,1-.68-2.73q0-42.42,0-84.82A3.77,3.77,0,0,1,456,428.08Z" transform="translate(-74.38 -217.97)"/><path class="cls-17" d="M476.4,511.45c-.63-.52-.46-1.26-.46-1.93q0-36,0-72.08c0-.8-.24-1.73.9-2l0,0a.66.66,0,0,0,.46.47l-.06,0a.69.69,0,0,0,.44.47l0,0a.86.86,0,0,0,.44.46l0,0a1.17,1.17,0,0,0,.42.46l0,0a4.18,4.18,0,0,0,.4.44c2.09,2,3.89,4.25,5.81,6.4a21.29,21.29,0,0,0,11.14,6.65,7.74,7.74,0,0,0,2,.26,2.71,2.71,0,0,0,1.6.35c1,0,2.07.05,3.1.05H623.92c2.47,0,2.47,0,2.41,2.46-.76-2.06-.76-2.07-3.14-2.07H582a3.21,3.21,0,0,1-2.33.65c-8.05,0-16.11.09-24.17,0q-13.66.13-27.33,0c-8,.12-16,0-24,.06-3.08,0-3.12,0-3.12,3.1,0,12.08,0,24.15,0,36.22,0,1.15.25,2.37-.66,3.35a25,25,0,0,0-7.64,1.61A21.5,21.5,0,0,0,485,502c-1.87,2-3.54,4.23-5.56,6.1-.51.23-.62.81-1,1.15l0,0a1.52,1.52,0,0,1-.36.4l0,0a5.22,5.22,0,0,1-.39.43h0a2.2,2.2,0,0,0-.41.45l0,0a2.61,2.61,0,0,0-.43.45l0,0a.81.81,0,0,0-.43.46Z" transform="translate(-74.38 -217.97)"/><path class="cls-18" d="M500.38,495V454.72c0-.41,0-.82,0-1.24,0-1.73,0-1.76,1.71-1.78s3.44,0,5.17,0h20.88c.85,1,.66,2.21.66,3.36q0,17.46,0,34.92c0,.68,0,1.38,0,2.06-.07,1.5.61,2.09,2.1,2.08q6,0,12,0c4.2,0,8.4-.08,12.6.05,8.06-.13,16.12,0,24.19,0a3.33,3.33,0,0,1,2.34.63l42.14,0a2.25,2.25,0,0,0,2.18-.83,1.15,1.15,0,0,1-.4,1.25c-.9,0-1.79-.06-2.69-.06H503.06C502.17,495.14,501.28,495.08,500.38,495Z" transform="translate(-74.38 -217.97)"/><path class="cls-16" d="M476.78,511l.43-.45a2.58,2.58,0,0,1,0,.39A2.63,2.63,0,0,1,476.78,511Z" transform="translate(-74.38 -217.97)"/><path class="cls-16" d="M476.38,511.43a.61.61,0,0,1,.43-.46A.55.55,0,0,1,476.38,511.43Z" transform="translate(-74.38 -217.97)"/><path class="cls-16" d="M477.28,435.89a.51.51,0,0,1-.46-.46,2.43,2.43,0,0,1,.38,0Z" transform="translate(-74.38 -217.97)"/><path class="cls-14" d="M199.88,478.31a1.51,1.51,0,0,0,.06-.41c-.53-3.24.87-5.79,2.66-8.35,3.87-5.52,7.55-11.18,11.3-16.79,5.48-8.17,10.88-16.41,16.47-24.51,5.86-8.5,11.47-17.17,17.27-25.71a3.82,3.82,0,0,1,4.56-1.8.85.85,0,0,1,.76.83c0,.56,0,1.11,0,1.66V517.16c0,2.63.13,2.49-2.47,2.49H207.85c-1-.32-1.26-1.24-1.54-2.07a133.91,133.91,0,0,1-6.54-30.51,39.11,39.11,0,0,1-.42-6.4C199.41,479.86,199.26,479,199.88,478.31Z" transform="translate(-74.38 -217.97)"/><path class="cls-14" d="M318.11,403.17a85.25,85.25,0,0,1,8.28,14.77,129.8,129.8,0,0,1,10.38,36.69,139.85,139.85,0,0,1,1.09,25.21,134.66,134.66,0,0,1-7.45,38.66c-.1.26-.25.49-.37.74a3.58,3.58,0,0,1-1.79.42c-3,0-5.93,0-8.89,0-1.68,0-1.68,0-1.72-1.78,0-.34,0-.69,0-1q0-55.56,0-111.13C317.65,404.85,317.29,403.89,318.11,403.17Z" transform="translate(-74.38 -217.97)"/><path class="cls-19" d="M199.88,478.31a114.78,114.78,0,0,0,2.31,21.32A123.53,123.53,0,0,0,207,517.57a7.2,7.2,0,0,0,.88,2.08,51.87,51.87,0,0,0,2.57,6.82,6.66,6.66,0,0,1,.72,1.89c-.63-.3-1.22-.51-1.24.55,0,.34,0,.69,0,1q0,21.38,0,42.73a61.07,61.07,0,0,1-7.46-8.28c-10.61-13.29-17.85-28.3-22.71-44.53-.12-.39-.11-.83-.44-1.13a1.83,1.83,0,0,1-.87-1.32c-.57-3-2-5.79-1.71-8.93a4,4,0,0,1,.83-1.65l21.18-31.35c.15-.22.33-.42.65-.83C199.86,476,199.33,477.23,199.88,478.31Z" transform="translate(-74.38 -217.97)"/><path class="cls-20" d="M261.27,598.35A2,2,0,0,1,260,596.3c.06-6.88,0-13.77,0-20.65,0-1.52,0-1.52,1.77-1.76,1.78.13,3.56.33,5.34.4A47.28,47.28,0,0,0,284,571.74c.71-.24,1.43-.44,2.15-.67v23.46c0,.91-.13,1.89,1.27,1.8a47.62,47.62,0,0,1-9.87,2,76.06,76.06,0,0,1-12.17.45A27.93,27.93,0,0,1,261.27,598.35Z" transform="translate(-74.38 -217.97)"/><path class="cls-14" d="M176.71,508.48l2.58,10.25c-.12.4-.24.86-.74.86-3,0-6,0-8.94,0-.3-.81.21-1.1.45-1.47,1.95-3,3.94-6,5.91-9A1.82,1.82,0,0,1,176.71,508.48Z" transform="translate(-74.38 -217.97)"/><path class="cls-19" d="M211.92,530a.89.89,0,0,1-.38-.79A.84.84,0,0,1,211.92,530Z" transform="translate(-74.38 -217.97)"/><path class="cls-19" d="M211.53,529.19a.87.87,0,0,1-.39-.83A.92.92,0,0,1,211.53,529.19Z" transform="translate(-74.38 -217.97)"/><path class="cls-19" d="M213.15,532.49c-.11-.18-.21-.36-.32-.53A.61.61,0,0,1,213.15,532.49Z" transform="translate(-74.38 -217.97)"/><path class="cls-19" d="M212.73,531.66l-.31-.55A.62.62,0,0,1,212.73,531.66Z" transform="translate(-74.38 -217.97)"/><path class="cls-19" d="M212.33,530.83a.65.65,0,0,1-.32-.56A.64.64,0,0,1,212.33,530.83Z" transform="translate(-74.38 -217.97)"/><path class="cls-21" d="M846.82,451.7v40.58c0,2.63-.13,2.51,2.45,2.51l12.21,0a7.62,7.62,0,0,1-3.25.3c-6,0-12,0-18,0-1.7,0-1.72,0-1.72,1.69,0,3.44,0,6.88,0,10.32,0,2.06,0,2.06-2,2.07-3,0-5.92,0-8.88,0a13.24,13.24,0,0,0-4.07.48c-.69-.69-.39-1.57-.39-2.36q0-27.82,0-55.64Z" transform="translate(-74.38 -217.97)"/><path class="cls-21" d="M830.6,562.93c-.24-.7-.85-.59-1.38-.59-1.44,0-2.89,0-4.33,0-1.62,0-1.64-.06-1.68-1.6,0-1,0-2.06,0-3.09q0-16.93,0-33.85c0-.81-.39-1.89,1-2.13,3.72.44,7.44.15,11.16.23h1.24c1.94,0,2,0,2,1.93,0,4.89,0,9.79,0,14.68,0,2.44-.16,2.25,2.22,2.25,2.62,0,5.24,0,7.86,0,3.19,0,5.15,2,5.18,5.18q.08,10.14,0,20.27a4.85,4.85,0,0,1-5.17,5.22c-5.58.07-11.16,0-16.75,0-1,0-1.36-.31-1.33-1.31C830.6,567.75,830.59,565.34,830.6,562.93Z" transform="translate(-74.38 -217.97)"/><path class="cls-9" d="M328.91,570.67a.53.53,0,0,1-.45.45A.51.51,0,0,1,328.91,570.67Z" transform="translate(-74.38 -217.97)"/><path class="cls-9" d="M329.37,570.25a.65.65,0,0,1-.51.45A.57.57,0,0,1,329.37,570.25Z" transform="translate(-74.38 -217.97)"/><path class="cls-22" d="M456,428.08q0,45.15,0,90.29c-7.45,0-14.9,0-22.35,0-1.62,0-1.63,0-1.69-1.6,0-.41,0-.83,0-1.24V430.93c0-.35,0-.69,0-1,0-1.78,0-1.81,1.89-1.81Z" transform="translate(-74.38 -217.97)"/><path class="cls-23" d="M405.91,494.76q-12.53,0-25,0c-1.89,0-1.91,0-1.91-2q0-19.55,0-39.09c0-2,0-2,2.12-2H405.9Q405.9,473.23,405.91,494.76Z" transform="translate(-74.38 -217.97)"/><path class="cls-3" d="M355.38,526.29a1.49,1.49,0,0,1-.44,1.25C354.94,527.08,354.85,526.57,355.38,526.29Z" transform="translate(-74.38 -217.97)"/><path class="cls-3" d="M354,530a.87.87,0,0,1-.35.82A.86.86,0,0,1,354,530Z" transform="translate(-74.38 -217.97)"/><path class="cls-3" d="M354.5,528.78a1,1,0,0,1-.37.9A.85.85,0,0,1,354.5,528.78Z" transform="translate(-74.38 -217.97)"/><path class="cls-3" d="M355,527.53a1.11,1.11,0,0,1-.38,1A.86.86,0,0,1,355,527.53Z" transform="translate(-74.38 -217.97)"/><path class="cls-3" d="M355.71,525.47a.85.85,0,0,1-.34.85A.85.85,0,0,1,355.71,525.47Z" transform="translate(-74.38 -217.97)"/><path class="cls-3" d="M356.13,524.22a1,1,0,0,1-.34.92A.9.9,0,0,1,356.13,524.22Z" transform="translate(-74.38 -217.97)"/><path class="cls-3" d="M356.55,523a1,1,0,0,1-.34.91A.86.86,0,0,1,356.55,523Z" transform="translate(-74.38 -217.97)"/><path class="cls-3" d="M357,521.74a1,1,0,0,1-.34.91A.87.87,0,0,1,357,521.74Z" transform="translate(-74.38 -217.97)"/><path class="cls-3" d="M357.36,520.5a.94.94,0,0,1-.33.89A.9.9,0,0,1,357.36,520.5Z" transform="translate(-74.38 -217.97)"/><path class="cls-24" d="M747.37,451.7v43.06l-23,0c-1.88,0-1.9,0-1.91-2V453.7c0-2,0-2,2.12-2Z" transform="translate(-74.38 -217.97)"/><path class="cls-16" d="M478.83,437.6l-.4-.44A.51.51,0,0,1,478.83,437.6Z" transform="translate(-74.38 -217.97)"/><path class="cls-16" d="M478.45,437.18l-.42-.46A.56.56,0,0,1,478.45,437.18Z" transform="translate(-74.38 -217.97)"/><path class="cls-16" d="M478.06,436.75a.59.59,0,0,1-.44-.46A.55.55,0,0,1,478.06,436.75Z" transform="translate(-74.38 -217.97)"/><path class="cls-16" d="M477.66,436.33a.58.58,0,0,1-.44-.47A.52.52,0,0,1,477.66,436.33Z" transform="translate(-74.38 -217.97)"/><path class="cls-16" d="M478.4,509.24a1.14,1.14,0,0,1,1-1.15A2.27,2.27,0,0,1,478.4,509.24Z" transform="translate(-74.38 -217.97)"/><path class="cls-16" d="M478,509.68l.36-.4A.43.43,0,0,1,478,509.68Z" transform="translate(-74.38 -217.97)"/><path class="cls-16" d="M477.59,510.13l.39-.43A.48.48,0,0,1,477.59,510.13Z" transform="translate(-74.38 -217.97)"/><path class="cls-16" d="M477.19,510.57l.41-.45A.52.52,0,0,1,477.19,510.57Z" transform="translate(-74.38 -217.97)"/><path class="cls-25" d="M582,494.76H555.5a3.64,3.64,0,0,1-.67-2.73q0-18.79,0-37.59a3.72,3.72,0,0,1,.67-2.74H582Z" transform="translate(-74.38 -217.97)"/><path class="cls-26" d="M555.5,451.7v43.06q-12.71,0-25.41,0c-1.91,0-1.94,0-1.94-2V451.7Z" transform="translate(-74.38 -217.97)"/></svg>