<svg xmlns="http://www.w3.org/2000/svg" xmlns:xlink="http://www.w3.org/1999/xlink" viewBox="0 0 901.86 617.78"><defs><style>.cls-1{fill:none;}.cls-2{opacity:0.7;}.cls-3{isolation:isolate;}.cls-4{clip-path:url(#clip-path);}.cls-5{fill:#d6e0e8;}.cls-6{fill:#4e687c;}.cls-19,.cls-7{fill:#e7e7d6;}.cls-7{opacity:0.6;}.cls-8{fill:#43323a;}.cls-9{fill:#473830;}.cls-10{fill:#634e42;}.cls-11{clip-path:url(#clip-path-2);}.cls-12{fill:#ff4272;}.cls-13{fill:#6f6e6e;}.cls-14{fill:#36282e;}.cls-15{fill:#191917;opacity:0.2;}.cls-16{fill:#ffdba7;}.cls-17{fill:#8a9ca8;}.cls-18{fill:#fff;}.cls-20{fill:#1d1d1b;}.cls-21{fill:#c6c6c6;}.cls-22{fill:#d3d3d3;}.cls-23{fill:#575756;}</style><clipPath id="clip-path" transform="translate(-75.26 -197.5)"><polygon class="cls-1" points="181.12 858.07 -74.95 642.3 771.09 218.65 1027.16 434.43 181.12 858.07"/></clipPath><clipPath id="clip-path-2" transform="translate(-75.26 -197.5)"><polygon class="cls-1" points="444.78 333.11 456.01 261.87 525.22 290.88 513.98 362.13 444.78 333.11"/></clipPath></defs><title>403</title><g id="Layer_4" data-name="Layer 4"><g class="cls-2"><g class="cls-3"><g class="cls-4"><path class="cls-5" d="M155.62,744l-9.19-111.18,3.8-1.9,86.19,72.62L155.62,744M142.76,541l-67.5,33.8L92.43,783.34l37.91,31.94,149.72-75,45.06,38,62.26-31.18-45.06-38,40.4-20.23-43.63-36.77-40.4,20.23L142.76,541" transform="translate(-75.26 -197.5)"/><path class="cls-5" d="M573,602.76Q550.63,614,522.87,613.2t-55.71-12.46a200.62,200.62,0,0,1-51.89-31.91q-36.84-31-40.49-60.93t30.11-46.78q34.22-17.14,77.61-7.4t80.59,41.09q24,20.19,34.3,40.71t4.38,38.17q-6,17.65-28.79,29.07M360.9,424.05Q320,444.51,305.76,474t-2,62.5q12.27,33,48.75,63.74A260,260,0,0,0,435,647.09a256.86,256.86,0,0,0,93.54,14.66q47.53-1.46,88.4-21.92t55.14-50q14.26-29.48,2-62.49t-48.75-63.75a260.4,260.4,0,0,0-82.5-46.85,257.34,257.34,0,0,0-93.55-14.66q-47.54,1.47-88.4,21.93" transform="translate(-75.26 -197.5)"/><path class="cls-5" d="M654.16,277.2q-41.35,20.7-52.47,47.42t.36,49.79l74.09-13.56q-7.07-12.33-3-24.91t23.51-22.34a78.41,78.41,0,0,1,38.28-8.6q19.74.69,31.91,10.93,15,12.66,8.4,26.54t-27.55,24.36L722,379.69l42.56,35.86,28.05-14q27.09-13.56,52.14-13.86t40.41,12.68q14.31,12,8.64,27.38t-26.11,25.57a97.17,97.17,0,0,1-46.56,10.58,109,109,0,0,1-47.43-12.52l-41.42,44.28a191.91,191.91,0,0,0,91.41,18.6q48.06-2,89.41-22.67,33.75-16.89,50-38t13.69-42.41q-2.53-21.3-23.64-39.08-21.81-18.39-51.94-24a164.57,164.57,0,0,0-61,.29l-2.86-2.4a43.42,43.42,0,0,0,8.84-31.82q-1.83-17.82-21.5-34.39-18.58-15.67-46.74-21.52t-60.74-1.06a207.52,207.52,0,0,0-63,20" transform="translate(-75.26 -197.5)"/></g></g></g></g><g id="Layer_1" data-name="Layer 1"><polygon class="cls-6" points="338.91 283.04 344.99 291.68 355.13 285.82 355.13 18.16 471.8 85.52 471.8 353.18 472.59 365.35 482.73 359.49 482.74 79.99 344.19 0 334.05 5.86 338.91 283.04"/><polygon class="cls-7" points="351.19 22.14 351.19 289.8 351.19 289.8 467.86 357.16 467.86 357.16 467.86 89.5 351.19 22.14"/><polygon class="cls-8" points="472.59 85.84 472.59 365.35 461.66 359.03 461.66 91.37 344.99 24.01 344.99 291.67 334.05 285.37 334.05 5.86 472.59 85.84"/><path class="cls-9" d="M527.5,406.74l.47.82a3.19,3.19,0,0,0,0,.45c0,.11,0,.23,0,.35a6,6,0,0,0,.46,1.85,7.77,7.77,0,0,0,1,1.77,6.15,6.15,0,0,0,1.37,1.33l.3.19.4.2.47.81,1.34-.77h0l.11-.07h0a2.18,2.18,0,0,0,.85-1.87.62.62,0,0,0,0-.13,5.84,5.84,0,0,0-.4-2,7.79,7.79,0,0,0-1.23-2.13,6,6,0,0,0-1.55-1.36l-.11-.06a2.23,2.23,0,0,0-2-.2h0Z" transform="translate(-75.26 -197.5)"/><path class="cls-10" d="M521.38,407.23a7.12,7.12,0,0,1,9.06,1.63l.06.08h0a6.18,6.18,0,0,1,.61.9,7,7,0,0,1,.85,2.32,7.13,7.13,0,1,1-10.58-4.93Z" transform="translate(-75.26 -197.5)"/><rect class="cls-9" x="521.49" y="406.26" width="3.08" height="16.48" transform="translate(-212.44 119.55) rotate(-30)"/><path class="cls-9" d="M524,407l.21.11a10.6,10.6,0,0,1,2.83,2.48,14.2,14.2,0,0,1,2.26,3.92,10.53,10.53,0,0,1,.73,3.69v.24c-.11,3.54-2.67,4.94-5.82,3.12a4.73,4.73,0,0,1-.56-.35,11.55,11.55,0,0,1-2.52-2.43,14.21,14.21,0,0,1-1.87-3.25,11.55,11.55,0,0,1-.85-3.4q0-.33,0-.66C518.39,406.82,520.89,405.3,524,407Z" transform="translate(-75.26 -197.5)"/><path class="cls-10" d="M515.79,412c0-3.72,2.61-5.22,5.83-3.37a12.9,12.9,0,0,1,5.82,10.09c0,3.72-2.61,5.23-5.82,3.37A12.89,12.89,0,0,1,515.79,412Z" transform="translate(-75.26 -197.5)"/><path class="cls-9" d="M524.73,413.52a10.9,10.9,0,0,1,1.55,5.16A2.43,2.43,0,0,1,522.2,421,11.7,11.7,0,0,1,517,412,2.43,2.43,0,0,1,521,409.6,10.89,10.89,0,0,1,524.73,413.52Z" transform="translate(-75.26 -197.5)"/><g class="cls-3"><g class="cls-11"><path class="cls-12" d="M453.67,309.5l2.58-16.38,60.21,25.24-2.58,16.38L453.67,309.5m36.95-33.12c-19.12-8-37.13,1.44-40.23,21.12s9.88,42.11,29,50.12,37.12-1.44,40.22-21.11-9.87-42.12-29-50.13" transform="translate(-75.26 -197.5)"/></g></g><path class="cls-13" d="M485.67,343.8a11.12,11.12,0,0,0-7.3-5.24c-3-.57-6.87.11-9,2.38-2.28,2.5-2.82,4.91-2.76,8.64.21,11.47-5.28,50.4,13.15,51,5.45-.38-.62-13.65,6.28-12.78.28-2.24,2.6-4.37,2.86-11.71a143.33,143.33,0,0,0-.71-23.07C487.84,349.83,487.33,346.55,485.67,343.8Z" transform="translate(-75.26 -197.5)"/><path class="cls-13" d="M507.74,411.13c2.73-.26,8-7.24,6.09-9-9.66-9.1-25.76-19.1-28.5-20.94l-1.23-.8c-4.3,5.47-15.51,13.62-14,16.23C478.93,402.56,501.39,411.75,507.74,411.13Z" transform="translate(-75.26 -197.5)"/><path class="cls-14" d="M464.65,542.28c-1.23-2.14-3.79-3.17-6.24-3.46a8.57,8.57,0,0,0-3.87.31c-3.1,1.11-4.74,4.69-4.66,8,.05,1.74.47,3.44.58,5.18.18,3.06-.62,6.08-1,9.12a35.06,35.06,0,0,0,.33,11.15,2.32,2.32,0,0,0,.3.86,2.16,2.16,0,0,0,1.05.72,14.86,14.86,0,0,0,15.05-2.45,15.72,15.72,0,0,1,1.73-1.44,11,11,0,0,1,3.05-1.19,59.57,59.57,0,0,0,10.11-3.6c3-1.46,6-3.64,6.83-6.87a5.21,5.21,0,0,0,0-2.66c-.72-2.46-3.61-3.68-6.17-3.64s-5,1-7.57,1.37-5.48,0-7-2.09C465.15,549,466.26,545.1,464.65,542.28Z" transform="translate(-75.26 -197.5)"/><path class="cls-8" d="M467.76,485.58a.77.77,0,0,1,0,.15c-.69,4.18-2.93,8.32-6.71,10.23a16.59,16.59,0,0,1-8.81,1.58,10.7,10.7,0,0,1-5.44-1.92,3.84,3.84,0,0,1-.45-.37c-3.43-2.89-4.81-8.26-6.5-12.41a65.14,65.14,0,0,1-3.83-14c-.51-3-.87-5.95-1.15-8.95v-.12c-.34-3.9-.56-7.81-.77-11.7-.18-3.35-.34-6.83.87-10a20.79,20.79,0,0,1,4.75-6.71,36.38,36.38,0,0,1,8.84-7.1,17.58,17.58,0,0,1,11-2.16q3.81,25.45,7.65,50.94C467.8,477.23,468.42,481.45,467.76,485.58Z" transform="translate(-75.26 -197.5)"/><path class="cls-8" d="M470.1,545.49c-1.27,3.09-4.74,4.55-7.87,5.72a25.23,25.23,0,0,1-6.89,1.81,8.44,8.44,0,0,1-6.59-2.12c-1.61-1.63-2.2-4-2.69-6.23-.54-2.54-1-5.08-1.4-7.63a2.23,2.23,0,0,1-.05-.36c-.46-2.8-.81-5.61-1.07-8.45q-.48-4.82-.64-9.66c-.24-7.75.15-15.73,3.21-22.86.07-.15.14-.31.22-.46a27.52,27.52,0,0,1,3.39-5.69,21.77,21.77,0,0,1,13.24-8.5c1.49-.25,3.28-.19,4.16,1a4.55,4.55,0,0,1,.59,2.45c0,.34,0,.69.05,1q1.42,27.3,2.85,54.6A12.16,12.16,0,0,1,470.1,545.49Z" transform="translate(-75.26 -197.5)"/><path class="cls-15" d="M449.72,489.56A48.65,48.65,0,0,0,453,496c-.28.52-.55,1-.8,1.56-5.14,10.38-7.32,23.9-7.56,39.5v.06l-.05-.42-1.07-8.45q-.48-4.82-.64-9.66c-.24-7.75.15-15.73,3.21-22.86.07-.15.14-.31.22-.46-3.43-2.89-4.81-8.26-6.5-12.41a65.14,65.14,0,0,1-3.83-14l-1.15-8.95v-.12c7,2.77,14.9-2.72,18.18-10.33l-5.92,16.16A42.42,42.42,0,0,0,449.72,489.56Z" transform="translate(-75.26 -197.5)"/><path class="cls-14" d="M428.32,568.18a13.08,13.08,0,0,0,0-3.59c-.72-3.64-5.27-5.64-9-5.24a8.15,8.15,0,0,0-3.71,1.39A6.9,6.9,0,0,0,413,564c-.78,2.21-.1,4.65-.36,7s-1.45,4.5-2.08,6.78c-.91,3.27-.66,6.73-.41,10.11a3.32,3.32,0,0,0,.3,1.33,3.17,3.17,0,0,0,.7.76,17.76,17.76,0,0,0,4,2.86c.95.45,2,.73,2.91,1.2a20.17,20.17,0,0,1,3.1,2.11,34.79,34.79,0,0,0,18,6.73,13.52,13.52,0,0,0,4.91-.33,6.24,6.24,0,0,0,3.83-2.91,6.7,6.7,0,0,0-.76-7.08c-2.49-3.1-6.34-5.65-10.3-8.4-2.8-1.95-4.51-4-6.83-6.53-.42-.45-1.27-1-1.48-1.63a17.63,17.63,0,0,1-.22-3.78C428.3,571,428.25,569.39,428.32,568.18Z" transform="translate(-75.26 -197.5)"/><path class="cls-8" d="M412.05,495.12c.38,4.93.81,10,2.94,14.45s6.39,8.25,11.33,8.39,9.6-3.61,11.92-8.12,2.87-9.7,3.38-14.75c1.75-17.48,3.5-35.22.52-52.54-1.15-6.67-3.66-14-9.82-16.84-5.39-2.45-13-.8-17.11,3.46s-6.36,11.18-7,17.06,2.13,16.33,2.6,18c1.53,5.57.3,10.68.63,15.18C411.89,485.62,411.58,489,412.05,495.12Z" transform="translate(-75.26 -197.5)"/><path class="cls-13" d="M462.07,424.16c-6.81-7.32-18.24-11.89-28-9.9-7.29,1.47-20,12.17-20.32,13.21s-1.65,4.76-1.44,5.51c3.14,5.16,9.14,8.07,15.14,8.79s12-.46,17.91-1.9c4.28-1.05,11.19-3.34,14.13-6.62C461.1,431.41,461.2,428.86,462.07,424.16Z" transform="translate(-75.26 -197.5)"/><path class="cls-8" d="M482.11,368.43q-6.58,20.6-13.18,41.17c-1.62,5-3.29,10.21-6.45,14.47A28.61,28.61,0,0,1,449,433.7c-.38.14-.77.27-1.15.39l-1.17.35A46.33,46.33,0,0,1,430,435.68c-6.32-.57-13.29-2.62-16.27-8.21-1.83-3.43-1.78-7.5-1.68-11.38q.39-15.46.76-30.93c.26-10,.79-20.81,7.13-28.54,3.87-4.7,9.45-7.66,15.16-9.78,9.51-3.52,19.64-5,29.69-6.46,4-.6,8.06-1.18,12.1-1.77a10,10,0,0,1,4.95.14c2.89,1.12,4,4.62,4.27,7.7C486.71,353.93,484.39,361.29,482.11,368.43Z" transform="translate(-75.26 -197.5)"/><path class="cls-8" d="M484.41,320.82a40,40,0,0,1-.29,5.9c0,.21,0,.41-.08.62-.16,1.5-.4,3-.66,4.46-.12.68-.24,1.35-.38,2q-.69,3.45-1.68,6.83a16.18,16.18,0,0,1-3.23,6.66,18.27,18.27,0,0,1-3.25,2.6,24.06,24.06,0,0,0-2.13,1.59c-1.74,1.49-1,3.09-2.92,5.37,0,0,0,0,0,0-4.61,1.53-6.37,4-13.88-1.38-2.44-1.72-5.6-3.83-6.64-6.62a14.33,14.33,0,0,1-.43-6.19c.26-3.45.52-6.92.76-10.37.37-4.92.75-9.89,2.24-14.58s4.29-9.16,8.48-11.74a15.66,15.66,0,0,1,22.48,6.88A20.35,20.35,0,0,1,484.41,320.82Z" transform="translate(-75.26 -197.5)"/><path class="cls-13" d="M435.75,364.73A11.16,11.16,0,0,0,431,357.1c-2.58-1.69-6.39-2.52-9.19-1.22-3.06,1.43-4.48,3.45-5.85,6.92-4.19,10.68-24.14,44.56-7.34,52.17,5.18,1.73,4.64-12.85,10.69-9.41,1.11-2,4.07-3.05,7.11-9.73a142.69,142.69,0,0,0,8.16-21.59C435.45,371.14,436.23,367.91,435.75,364.73Z" transform="translate(-75.26 -197.5)"/><path class="cls-8" d="M430.83,499.14a8.87,8.87,0,0,1,6.66,3.24c1.39,1.94,1.58,4.48,1.6,6.88,0,3.92-.25,7.84-.53,11.75L436,556.82c-.3,4.06-.82,8.6-4,11.2a10.16,10.16,0,0,1-6.72,2.06,30.41,30.41,0,0,1-7.06-1.25c-2.93-.77-6.07-1.66-7.95-4-1.57-2-2-4.57-2.25-7.07a118.09,118.09,0,0,1,1-33.05c1.05-6.06,2.64-12.2,6.2-17.22S424.69,498.7,430.83,499.14Z" transform="translate(-75.26 -197.5)"/><path class="cls-15" d="M474.84,349.92a21.14,21.14,0,0,0-2.13,1.6c-1.73,1.49-1.06,3.08-2.92,5.36l-1.13-.46a4.8,4.8,0,0,1-2.3-1.72c-.55-.91-.48-2.06-.9-3-.57-1.33-1.93-2.12-2.91-3.2-2-2.16-2.29-5.33-3.48-8a27.53,27.53,0,0,0,2.95,4.38,13.84,13.84,0,0,0,2.13,2.13,15.9,15.9,0,0,0,7.42,2.76A10.92,10.92,0,0,0,474.84,349.92Z" transform="translate(-75.26 -197.5)"/><path class="cls-13" d="M458.41,398.57c-3.3,9.12-6.72,18.56-8.19,28.22-.07.47-.13.92-.2,1.38a42.06,42.06,0,0,1-1,5.53c-.38.14-.77.27-1.15.39l-1.17.35a31.53,31.53,0,0,0,1.4-6.55c.07-.46.13-.93.21-1.39,1.49-9.86,4.94-19.39,8.28-28.61l.95-2.6c.74-2.07,1.46-4.11,2.1-6.2,3.08-10.16,3.29-19.65,4-30.1l2.46-.55c-.7,10.56-1.4,20.85-4.54,31.22-.66,2.14-1.39,4.2-2.15,6.3Z" transform="translate(-75.26 -197.5)"/><path class="cls-13" d="M450.79,344a14.61,14.61,0,0,0,6.91,7.52c1.72.83,3.66,1.27,5.12,2.5s2.15,3.69.76,5a15.71,15.71,0,0,1-11.68-3.92c-3.15-2.82-5.72-7.24-5.81-11.46,1.06-.61,2.6-3.46,3-4.57C450,341,450.2,342.73,450.79,344Z" transform="translate(-75.26 -197.5)"/><path class="cls-13" d="M472.93,353.85a11,11,0,0,0,.77-3.12c-.51-.31-3,1.27-3.58,1.52-2.88,1.33-4.57,3-5,6.19C468.42,358.48,471.9,357,472.93,353.85Z" transform="translate(-75.26 -197.5)"/><path class="cls-13" d="M425,421.74l.77-2.87a13.63,13.63,0,0,0,16.4-8.66l3.14-.19c-.49,4-4.59,8.43-8.26,10.36A16.75,16.75,0,0,1,425,421.74Z" transform="translate(-75.26 -197.5)"/><path class="cls-13" d="M464,415.28a7.37,7.37,0,0,1-4.15-3,5.61,5.61,0,0,1-.73-5.52l2.6.21a4.22,4.22,0,0,0,.62,3.69,6.51,6.51,0,0,0,4.18,2.08l-1.11,2.8A6.71,6.71,0,0,1,464,415.28Z" transform="translate(-75.26 -197.5)"/><path class="cls-13" d="M409.26,415.14c12.48,6,42.38,12.52,44.88,11.38s6-8.35,5.29-11c-.53-1.92-33.5-18.65-39.09-19.85-.09,0-2.56,2.55-2.64,2.51-3.22,6.17-5.66,12-9.08,16.79Z" transform="translate(-75.26 -197.5)"/><path class="cls-8" d="M457.51,429.56l-.87.44a3.7,3.7,0,0,1-.54.24,2.87,2.87,0,0,1-.65.12,23,23,0,0,1-2.35.12c0-.5,0-1-.05-1.5a5.85,5.85,0,0,1,.11-1.62,1.93,1.93,0,0,1,.95-1.27,2.2,2.2,0,0,1,1.52,0,3.65,3.65,0,0,1,1.73,1A2.44,2.44,0,0,1,458,429a.84.84,0,0,1-.08.27A.89.89,0,0,1,457.51,429.56Z" transform="translate(-75.26 -197.5)"/><path class="cls-8" d="M474.11,419.61a1.74,1.74,0,0,1,.43,1.67,2.07,2.07,0,0,1-1.16,1.31c-.85.37-3.09-.41-3.89-.87a7.52,7.52,0,0,1-2-1.89c-.59-.73-1.16-1.48-1.7-2.26-.29-.42-.11-.06,0-.55,1.66.16,3.25,1.09,5.17,1.53C472.57,418.92,473.58,419.08,474.11,419.61Z" transform="translate(-75.26 -197.5)"/><path class="cls-8" d="M504.5,402.29c-.45-.7-.69-1.43-1.48-1.7-1.42,2.42-3.76,6.25-2.56,8.78a8.81,8.81,0,0,0,3,3.05c1.41,1,2.8,2.1,4.24,3.08,2.58,1.77,3.38.62,3.5.18s.33-.08.83.06a1.9,1.9,0,0,0,2.59-1.76c.52.11,1,.73,2,.13s1.2-1.68.86-2.08c3,1.31,2.44-3.89,2.89-6.19a2.92,2.92,0,0,0-.14-2.2,4.06,4.06,0,0,0-1.27-1c-1.17-.78-2-2-3.27-2.63-2-.94-4.33,0-6.33,1C508.27,401.45,504.76,402.7,504.5,402.29Z" transform="translate(-75.26 -197.5)"/><path class="cls-8" d="M517.06,400.86l1.79,1.43a3.92,3.92,0,0,1,1.79,2.45c.08,1-.58,1.9-.58,2.88a1.85,1.85,0,0,1-.1.94,1.13,1.13,0,0,1-.36.36,18,18,0,0,1-10.87,3.63l.12-3.5a.93.93,0,0,0-.07-.44.85.85,0,0,0-.35-.27,6.75,6.75,0,0,1-2.14-1.3,1.66,1.66,0,0,1-.13-2.26c.59-.52,1.48-.33,2.27-.35-.59-.45-.15-1.5.56-1.72a3.08,3.08,0,0,1,2.13.43c-.36-.65.23-1.5.94-1.69a3.65,3.65,0,0,1,2.17.3,1,1,0,0,1-.19-1.45,1.53,1.53,0,0,1,1.58-.32A4.3,4.3,0,0,1,517.06,400.86Z" transform="translate(-75.26 -197.5)"/><path class="cls-8" d="M510.44,397.54c1.88.43,3.39,2,5.3,2.23a8.73,8.73,0,0,1,2.12.25c.67.26,1.19,1.11.79,1.69a1.55,1.55,0,0,1-.68.47,8.59,8.59,0,0,1-7.12-.17,9.64,9.64,0,0,1-3.72,2.56,3.6,3.6,0,0,1-4.07-1.2,3.44,3.44,0,0,1,.71-4.08,7,7,0,0,1,4-1.76A7.15,7.15,0,0,1,510.44,397.54Z" transform="translate(-75.26 -197.5)"/><path class="cls-8" d="M454.59,434.72c1.67-.78,2.77-1,2.94-2.4.38-3.11-.79-3.91-2.36-4.38-2.5-.75-4-4.12-2.55-8.39a6.62,6.62,0,0,1,6-4.44,26.18,26.18,0,0,1,5.64,1.17,24.84,24.84,0,0,1,5.06,1.65c1.28.51,1.75,1.62,2.22,4.35a28.85,28.85,0,0,1,.51,5.63c0,2.1-1.48,3.3-3.24,2.3.26,2.34-1.73,3-3.5,2.11a2.26,2.26,0,0,1-3.58,2.07C460.62,438.75,456.72,436.23,454.59,434.72Z" transform="translate(-75.26 -197.5)"/><path class="cls-16" d="M484,327.34c-.16,1.5-.4,3-.66,4.46-.12.68-.24,1.35-.38,2a13.79,13.79,0,0,1-2,.59c-2.47.59-5.06,1.18-7.51.49a14.41,14.41,0,0,1-3.68-1.79,8.07,8.07,0,0,1-3-2.64,2.86,2.86,0,0,1,.52-3.64c1.36-.94,3.16,0,4.67.65A14.79,14.79,0,0,0,484,327.34Z" transform="translate(-75.26 -197.5)"/><path class="cls-8" d="M676.23,284.74,658.16,274.3c-1.53-.88-2.76-.16-2.76,1.6v20.87a6.1,6.1,0,0,0,2.76,4.79L676.23,312c1.53.88,2.77.17,2.77-1.6V289.53A6.1,6.1,0,0,0,676.23,284.74Z" transform="translate(-75.26 -197.5)"/><polygon class="cls-8" points="584.7 77.84 580.98 76.59 578.48 78.03 583.48 79.83 584.7 77.84"/><polygon class="cls-8" points="603.02 114.62 598.68 112.97 596.18 114.41 600.45 116.09 603.02 114.62"/><path class="cls-6" d="M673.89,313.33,655.82,302.9a6.13,6.13,0,0,1-2.77-4.79V277.24c0-1.77,1.24-2.48,2.77-1.6l18.07,10.43a6.13,6.13,0,0,1,2.77,4.8v20.86C676.66,313.5,675.42,314.21,673.89,313.33Z" transform="translate(-75.26 -197.5)"/><path class="cls-8" d="M657.07,279.88c0,.61-.42.86-1,.55a2.09,2.09,0,0,1-1-1.65c0-.61.43-.86,1-.56A2.12,2.12,0,0,1,657.07,279.88Z" transform="translate(-75.26 -197.5)"/><path class="cls-8" d="M674.55,290c0,.61-.43.86-.95.55a2.09,2.09,0,0,1-1-1.65c0-.61.43-.86,1-.56A2.14,2.14,0,0,1,674.55,290Z" transform="translate(-75.26 -197.5)"/><path class="cls-8" d="M657.07,299.86c0,.61-.43.86-1,.55a2.09,2.09,0,0,1-1-1.65c0-.61.43-.86,1-.56A2.12,2.12,0,0,1,657.07,299.86Z" transform="translate(-75.26 -197.5)"/><path class="cls-8" d="M674.55,310c0,.61-.43.86-.95.55a2.09,2.09,0,0,1-1-1.65c0-.61.43-.86,1-.56A2.14,2.14,0,0,1,674.55,310Z" transform="translate(-75.26 -197.5)"/><path class="cls-8" d="M669,296.86c0,2.62-1.83,3.68-4.1,2.37a9.09,9.09,0,0,1-4.11-7.12c0-2.62,1.84-3.68,4.11-2.37A9.08,9.08,0,0,1,669,296.86Z" transform="translate(-75.26 -197.5)"/><path class="cls-17" d="M670.29,298.28c0,4.2-2.95,5.9-6.58,3.8a14.55,14.55,0,0,1-6.58-11.39c0-4.19,3-5.89,6.58-3.8A14.55,14.55,0,0,1,670.29,298.28Z" transform="translate(-75.26 -197.5)"/><path class="cls-18" d="M640.05,304.82a3.1,3.1,0,0,1-.88-6.08l23.26-6.91c1.64-.49,2.93.46,3.42,2.1s0,3.36-1.65,3.85l-23.26,6.91A3.09,3.09,0,0,1,640.05,304.82Z" transform="translate(-75.26 -197.5)"/><circle class="cls-6" cx="562.65" cy="104.21" r="6.74"/><path class="cls-18" d="M636.34,299.34a3.1,3.1,0,0,1-3-2.38l-5.18-21.43a3.11,3.11,0,1,1,6-1.46l5.17,21.44a3.1,3.1,0,0,1-2.29,3.74A3,3,0,0,1,636.34,299.34Z" transform="translate(-75.26 -197.5)"/><path class="cls-6" d="M638.73,271.72a9.6,9.6,0,1,1-9.59-9.6A9.59,9.59,0,0,1,638.73,271.72Z" transform="translate(-75.26 -197.5)"/><path class="cls-6" d="M581.4,263.48l55.25-31.9c2.4-1.39,5.72-1.19,9.38.92l-62.39,36c-2.84,1.65-5.67-2.28-3.15-4.4l0-.05.34-.25.09.08Z" transform="translate(-75.26 -197.5)"/><path class="cls-19" d="M633.7,241.1c0-7.54,5.29-10.59,11.82-6.82s11.83,12.94,11.83,20.48-5.3,10.59-11.83,6.82S633.7,248.64,633.7,241.1Z" transform="translate(-75.26 -197.5)"/><rect class="cls-19" x="592.38" y="245.45" width="56.96" height="33.44" transform="translate(-123.17 148.05) rotate(-30)"/><path class="cls-18" d="M584.37,269.58c0,7.54,5.3,16.71,11.83,20.48s11.82.72,11.82-6.82-5.29-16.71-11.82-20.48S584.37,262,584.37,269.58Zm7-5.1a8.4,8.4,0,0,1,3.13,1.14,22.9,22.9,0,0,1,10.17,17.61,8.18,8.18,0,0,1-.58,3.29,3,3,0,0,1-1.23,1.5c-1.15.67-3,.36-5-.83a22.86,22.86,0,0,1-10.17-17.61c0-2.38.66-4.12,1.81-4.79A3.11,3.11,0,0,1,591.41,264.48Z" transform="translate(-75.26 -197.5)"/><path class="cls-6" d="M587.68,269.58a22.86,22.86,0,0,0,10.17,17.61c2.06,1.19,3.9,1.5,5,.83a3,3,0,0,0,1.23-1.5,8.18,8.18,0,0,0,.58-3.29,22.9,22.9,0,0,0-10.17-17.61,8.4,8.4,0,0,0-3.13-1.14,3.11,3.11,0,0,0-1.92.31C588.34,265.46,587.68,267.2,587.68,269.58Z" transform="translate(-75.26 -197.5)"/><path class="cls-17" d="M591.41,264.48a8.4,8.4,0,0,1,3.13,1.14l.27.17a13.82,13.82,0,0,1,1.94,1.41,24.19,24.19,0,0,1,7.7,13.34,14.26,14.26,0,0,1,.25,2.38c0,.1,0,.21,0,.31a8.18,8.18,0,0,1-.58,3.29,6.42,6.42,0,0,1-4.26-1,20.91,20.91,0,0,1-9.75-16.88A6.5,6.5,0,0,1,591.41,264.48Z" transform="translate(-75.26 -197.5)"/><path class="cls-8" d="M593,270.16a15.47,15.47,0,0,0,7,12.13,5.11,5.11,0,0,0,4.68.63,14.26,14.26,0,0,0-.25-2.38,24.19,24.19,0,0,0-7.7-13.34,13.82,13.82,0,0,0-1.94-1.41C593.69,266.57,593,268.08,593,270.16Z" transform="translate(-75.26 -197.5)"/><path class="cls-20" d="M596.75,267.2a24.19,24.19,0,0,1,7.7,13.34c-1,.63-2.4.58-4-.32a12,12,0,0,1-5.45-9.44C595.05,269,595.7,267.74,596.75,267.2Z" transform="translate(-75.26 -197.5)"/><path class="cls-18" d="M601.91,277.06a7.66,7.66,0,0,1-2.5-2.63l-1.64,1.28a9.61,9.61,0,0,0,3.11,3.14,3.84,3.84,0,0,0,2.4.6l-.37-2A2.22,2.22,0,0,1,601.91,277.06Z" transform="translate(-75.26 -197.5)"/><path class="cls-21" d="M652.71,251.86a1.49,1.49,0,0,0,.55-1.67h0a.86.86,0,0,0-1.24-.64L609.63,274a1.49,1.49,0,0,0-.55,1.67h0c.19.64.75.93,1.24.64Z" transform="translate(-75.26 -197.5)"/><path class="cls-21" d="M653.8,257a1.77,1.77,0,0,0,.82-1.51h0c0-.55-.47-.76-1-.48l-42.39,24.48a1.77,1.77,0,0,0-.82,1.51h0c0,.55.48.76,1,.47Z" transform="translate(-75.26 -197.5)"/><path class="cls-22" d="M636.13,231.88l0,0,.5-.32c2.4-1.39,5.72-1.19,9.38.92a27.15,27.15,0,0,1,9.38,9.9,29.54,29.54,0,0,1,3.61,9.82,4.6,4.6,0,0,1-2.24,4.7l-41.56,24a9.84,9.84,0,0,1-13.82-4.22c-.38-.81-.8-1.6-1.25-2.38a27.08,27.08,0,0,0-9.38-9.9c-3.65-2.12-7-2.32-9.37-.93Z" transform="translate(-75.26 -197.5)"/><path class="cls-21" d="M580.86,263.79l.54-.31a5.69,5.69,0,0,0-.52.33Z" transform="translate(-75.26 -197.5)"/><path class="cls-23" d="M614.07,277.16a1.07,1.07,0,0,1,1.6.61,1.72,1.72,0,0,1-.72,2,1.07,1.07,0,0,1-1.6-.62A1.7,1.7,0,0,1,614.07,277.16Z" transform="translate(-75.26 -197.5)"/><path class="cls-23" d="M627.46,269.42a1.08,1.08,0,0,1,1.6.62,1.72,1.72,0,0,1-.72,2,1.07,1.07,0,0,1-1.6-.62A1.72,1.72,0,0,1,627.46,269.42Z" transform="translate(-75.26 -197.5)"/><path class="cls-23" d="M640.85,261.69a1.08,1.08,0,0,1,1.6.62,1.72,1.72,0,0,1-.72,2,1.08,1.08,0,0,1-1.6-.62A1.72,1.72,0,0,1,640.85,261.69Z" transform="translate(-75.26 -197.5)"/><path class="cls-23" d="M654.24,254a1.07,1.07,0,0,1,1.6.62,1.72,1.72,0,0,1-.72,2,1.08,1.08,0,0,1-1.6-.62A1.72,1.72,0,0,1,654.24,254Z" transform="translate(-75.26 -197.5)"/></g></svg>