<?xml version="1.0" encoding="utf-8"?>
<!-- Generator: Adobe Illustrator 22.1.0, SVG Export Plug-In . SVG Version: 6.00 Build 0)  -->
<svg version="1.1" xmlns="http://www.w3.org/2000/svg" xmlns:xlink="http://www.w3.org/1999/xlink" x="0px" y="0px"
	 viewBox="0 0 1024 1024" style="enable-background:new 0 0 1024 1024;" xml:space="preserve">
<style type="text/css">
	.st0{display:none;}
	.st1{display:inline;}
	.st2{enable-background:new    ;}
	.st3{clip-path:url(#SVGID_2_);}
	.st4{fill:#D6E0E8;}
	.st5{opacity:0.7;}
	.st6{clip-path:url(#SVGID_4_);}
	.st7{fill:#D0DEDC;}
	.st8{fill:#E3FFF8;}
	.st9{fill:#CCDCE8;}
	.st10{fill:#7491AE;}
	.st11{opacity:0.58;fill:#7491AE;}
	.st12{fill:#AFC6D3;}
	.st13{fill:#8BA6BC;}
</style>
<g id="Layer_3" class="st0">
	<g class="st1">
		<g>
			<g class="st2">
				<defs>
					<polygon id="SVGID_1_" class="st2" points="211.5,886.2 -95.8,533.6 706.5,203.3 1013.8,555.9 					"/>
				</defs>
				<clipPath id="SVGID_2_">
					<use xlink:href="#SVGID_1_"  style="overflow:visible;"/>
				</clipPath>
				<g class="st3">
					<g>
						<g>
							<g>
								<path class="st4" d="M181.5,763.7l-14.3-114.8l3.1-1.3l77.4,88.8L181.5,763.7 M158.7,554.7l-55.3,22.8l26.8,215.4l34.1,39.1
									l122.7-50.5l40.5,46.4l51-21L338,760.3l33.1-13.6l-39.2-45l-33.1,13.6L158.7,554.7"/>
								<path class="st4" d="M560.2,660.3c-16.3,6.7-35,7.6-56,2.7c-21-4.9-42.4-14.9-64.2-29.8c-21.7-14.9-42.2-33.4-61.4-55.4
									c-29.5-33.8-46.4-64.6-50.7-92.2c-4.3-27.7,5.9-46.6,30.5-56.7c25-10.3,54.2-7.7,87.5,7.8c33.3,15.5,64.9,40.3,94.6,74.5
									c19.2,22,33.2,43.1,42.1,63.3c8.9,20.2,11.5,37.9,7.9,52.9C587,642.5,576.9,653.5,560.2,660.3 M305.6,368.3
									c-29.9,12.3-49.4,30.7-58.7,55.3c-9.3,24.6-8.4,52.8,2.6,84.6c11,31.8,31.1,64.5,60.3,98c29.2,33.5,61.6,61.1,97.3,82.8
									c35.6,21.7,71.4,35.5,107.3,41.5c35.9,6,68.7,2.8,98.6-9.5c29.9-12.3,49.4-30.7,58.7-55.3c9.2-24.6,8.4-52.7-2.6-84.6
									c-11-31.8-31.1-64.5-60.3-98c-29.2-33.5-61.6-61.1-97.3-82.8c-35.6-21.7-71.4-35.5-107.3-41.5
									C368.4,352.9,335.5,356,305.6,368.3"/>
								<path class="st4" d="M776.9,518.5l-14.3-114.8l3.1-1.3l77.4,88.8L776.9,518.5 M754.1,309.6l-55.3,22.8l26.8,215.4l34.1,39.1
									l122.7-50.5l40.5,46.4l51-21l-40.5-46.4l33.1-13.6l-39.2-45l-33.1,13.6L754.1,309.6"/>
							</g>
						</g>
					</g>
				</g>
			</g>
		</g>
	</g>
</g>
<g id="Layer_4">
	<g class="st5">
		<g>
			<g class="st2">
				<defs>
					<polygon id="SVGID_3_" class="st2" points="167.6,864.3 -88.5,648.5 782.3,212.5 1038.3,428.2 					"/>
				</defs>
				<clipPath id="SVGID_4_">
					<use xlink:href="#SVGID_3_"  style="overflow:visible;"/>
				</clipPath>
				<g class="st6">
					<g>
						<g>
							<g>
								<path class="st4" d="M142.1,750.2L132.9,639l3.8-1.9l86.2,72.6L142.1,750.2 M129.2,547.2L61.7,581l17.2,208.6l37.9,31.9
									l149.7-75l45.1,38l62.3-31.2l-45.1-38l40.4-20.2l-43.6-36.8l-40.4,20.2L129.2,547.2"/>
								<path class="st4" d="M559.4,608.9c-14.9,7.5-31.6,10.9-50.1,10.4c-18.5-0.5-37.1-4.6-55.7-12.5
									c-18.6-7.8-35.9-18.4-51.9-31.9c-24.6-20.7-38.1-41-40.5-60.9c-2.4-19.9,7.6-35.5,30.1-46.8c22.8-11.4,48.7-13.9,77.6-7.4
									c28.9,6.5,55.8,20.2,80.6,41.1c16,13.5,27.4,27,34.3,40.7c6.9,13.7,8.3,26.4,4.4,38.2C584.2,591.6,574.6,601.3,559.4,608.9
									 M347.3,430.2c-27.3,13.6-45.6,30.3-55.1,50c-9.5,19.7-10.2,40.5-2,62.5c8.2,22,24.4,43.3,48.8,63.7
									c24.3,20.5,51.8,36.1,82.5,46.8c30.7,10.7,61.9,15.6,93.5,14.7c31.7-1,61.2-8.3,88.4-21.9c27.3-13.6,45.6-30.3,55.1-50
									c9.5-19.7,10.2-40.5,2-62.5c-8.2-22-24.4-43.3-48.8-63.7c-24.3-20.5-51.8-36.1-82.5-46.8c-30.7-10.7-61.9-15.6-93.6-14.7
									C404.1,409.3,374.6,416.6,347.3,430.2"/>
								<path class="st4" d="M760.4,440.6l-9.2-111.2l3.8-1.9l86.2,72.6L760.4,440.6 M747.6,237.5l-67.5,33.8l17.2,208.6l37.9,31.9
									l149.7-75l45.1,38l62.3-31.2l-45.1-38l40.4-20.2l-43.6-36.8l-40.4,20.2L747.6,237.5"/>
							</g>
						</g>
					</g>
				</g>
			</g>
		</g>
	</g>
</g>
<g id="Layer_1">
	<g>
		<g>
			<path class="st7" d="M476.1,432.9c0,1.8,0,218.9,0,218.9l167.6-82V352.1L476.1,432.9z"/>
			<polygon class="st8" points="309.1,352.1 476.1,432.9 476.1,651.9 309.1,555.9 			"/>
			<polygon class="st9" points="236.5,423.2 309.1,352.1 476.1,432.9 406.3,519.2 			"/>
			<polygon class="st10" points="309.1,352.1 476.1,282.3 643.8,352.1 476.1,432.9 			"/>
			<polygon class="st11" points="643.5,547.4 643.5,569.8 475.8,651.9 476.1,627.8 			"/>
			<polygon class="st11" points="308.8,534.4 476.1,627.8 475.8,651.9 308.8,555.9 			"/>
			<path class="st10" d="M583.7,551l-21.1,9.8c-4.9,2.6-11,0.7-13.6-4.2l0,0c-2.6-4.9-0.7-11,4.2-13.6l21.1-9.8
				c4.9-2.6,11-0.7,13.6,4.2l0,0C590.5,542.3,588.6,548.4,583.7,551z"/>
			<polygon class="st12" points="723,418.3 555.7,513.1 476.1,432.9 643.8,352.1 			"/>
		</g>
		<polygon class="st13" points="476.1,432.9 476.1,282.3 309.1,352.1 		"/>
	</g>
</g>
</svg>
